<svg width="25" height="25" viewBox="0 0 25 25" fill="currentColor" xmlns="http://www.w3.org/2000/svg">
<path fill-rule="evenodd" clip-rule="evenodd" d="M9.92682 19.8232C9.92682 19.8232 14.207 15.544 15.9612 13.7888C16.3029 13.4471 16.4956 12.9836 16.4956 12.5002C16.4956 12.0169 16.3029 11.5534 15.9612 11.2117C14.207 9.4565 9.92682 5.17733 9.92682 5.17733C9.62266 4.87212 9.12682 4.87212 8.82266 5.17733C8.51745 5.4815 8.51745 5.97733 8.82266 6.2815C8.82266 6.2815 13.1018 10.5617 14.857 12.3159C14.905 12.3648 14.9331 12.4315 14.9331 12.5002C14.9331 12.569 14.905 12.6357 14.857 12.6846C13.1018 14.4388 8.82266 18.719 8.82266 18.719C8.51745 19.0232 8.51745 19.519 8.82266 19.8232C9.12682 20.1284 9.62266 20.1284 9.92682 19.8232Z" fill="currentColor"/>
</svg>
