<svg width="25" height="25" viewBox="0 0 25 25" fill="currentColor" xmlns="http://www.w3.org/2000/svg">
<path fill-rule="evenodd" clip-rule="evenodd" d="M11.9473 5.63182C12.0188 3.57828 13.6647 2 15.7671 2C15.8932 2 16.0152 2.0436 16.1121 2.12322L16.6023 2.52629C21.0573 5.68524 23.8008 10.6947 23.96 16.1507C23.9602 16.1522 23.9605 16.1537 23.9607 16.1552C24.2676 18.0732 22.7316 19.6772 20.9028 19.6772H14.5884C13.7073 19.6772 13.0225 20.353 13.0225 21.2223C13.0225 22.1805 12.1919 23 11.2208 23C10.2497 23 9.4191 22.1805 9.4191 21.2223C9.4191 20.353 8.73424 19.6772 7.85315 19.6772H1.53882C1.24124 19.6772 1 19.4392 1 19.1456V16.6535C1 16.5125 1.05677 16.3773 1.15782 16.2776L11.9473 5.63182ZM12.5236 6.56684L2.83966 16.1218H17.8267C17.6626 12.3395 15.7533 8.826 12.5935 6.62075C12.5848 6.6147 12.5763 6.6084 12.568 6.60185L12.5236 6.56684ZM18.9158 16.6535C18.9158 16.9471 18.6746 17.1851 18.377 17.1851H2.07765V18.6139H7.85315C9.32941 18.6139 10.4967 19.7657 10.4967 21.2223C10.4967 21.5932 10.8448 21.9367 11.2208 21.9367C11.5967 21.9367 11.9448 21.5932 11.9448 21.2223C11.9448 19.7657 13.1122 18.6139 14.5884 18.6139H20.9028C21.9421 18.6139 22.8227 17.8257 22.9139 16.8116C22.8981 16.7616 22.8897 16.7085 22.8897 16.6535C22.8897 16.5305 22.8883 16.4078 22.8855 16.2853C22.6654 15.4494 22.08 14.8854 21.2211 14.6837C19.962 14.498 18.9158 15.4028 18.9158 16.6535ZM22.702 14.1995C22.3416 13.9404 21.9187 13.7512 21.4449 13.6434C21.4326 13.6406 21.4202 13.6382 21.4077 13.6362C20.3583 13.4728 19.3957 13.8166 18.7352 14.4695C18.1555 10.9923 16.2043 7.84358 13.2289 5.76184L13.0273 5.60273C13.1074 4.21356 14.1739 3.15603 15.5791 3.06908L15.9273 3.35542C15.9373 3.36366 15.9477 3.37155 15.9583 3.37906C19.6058 5.95945 22.0326 9.85616 22.702 14.1995ZM13.3256 11.3703C12.6932 11.3703 12.1806 11.8761 12.1806 12.5C12.1806 13.1239 12.6932 13.6297 13.3256 13.6297C13.9579 13.6297 14.4706 13.1239 14.4706 12.5C14.4706 11.8761 13.9579 11.3703 13.3256 11.3703ZM11.1029 12.5C11.1029 11.2888 12.098 10.307 13.3256 10.307C14.5531 10.307 15.5482 11.2888 15.5482 12.5C15.5482 13.7112 14.5531 14.693 13.3256 14.693C12.098 14.693 11.1029 13.7112 11.1029 12.5ZM8.2741 12.7991C8.57169 12.7991 8.81293 13.0371 8.81293 13.3307V14.1614C8.81293 14.455 8.57169 14.693 8.2741 14.693C7.97652 14.693 7.73528 14.455 7.73528 14.1614V13.3307C7.73528 13.0371 7.97652 12.7991 8.2741 12.7991Z" fill="currentColor"/>
</svg>
