<svg width="25" height="25" viewBox="0 0 25 25" fill="currentColor" xmlns="http://www.w3.org/2000/svg">
<path d="M21.1805 11.912H17.9722V12.625H19.0417C18.972 13.9361 18.5228 15.1987 17.7487 16.2592C16.9746 17.3197 15.909 18.1323 14.6814 18.5982C13.4539 19.0641 12.1175 19.1631 10.8347 18.8833C9.55186 18.6035 8.37804 17.9569 7.45602 17.0222C7.79669 16.8264 8.06311 16.5235 8.21385 16.1607C8.3646 15.7978 8.39122 15.3953 8.28957 15.0157C8.18792 14.6362 7.96371 14.3009 7.65179 14.0619C7.33988 13.823 6.95774 13.6938 6.56482 13.6944C6.26181 13.6947 5.96402 13.7733 5.70035 13.9226C5.45448 12.952 5.42683 11.9391 5.61939 10.9566C5.81196 9.97405 6.21994 9.04645 6.81399 8.24053C7.40803 7.4346 8.17336 6.7704 9.05488 6.29572C9.93641 5.82105 10.9122 5.5477 11.912 5.49537V6.77157C11.7946 6.74942 11.6751 6.73986 11.5556 6.74305C11.0828 6.74305 10.6295 6.93084 10.2952 7.26511C9.96094 7.59937 9.77315 8.05274 9.77315 8.52546C9.77315 8.99818 9.96094 9.45155 10.2952 9.78581C10.6295 10.1201 11.0828 10.3079 11.5556 10.3079C11.6754 10.3081 11.7949 10.2956 11.912 10.2704V12.2685C11.912 12.3631 11.9496 12.4537 12.0164 12.5206C12.0833 12.5874 12.174 12.625 12.2685 12.625H15.8333V11.912H12.625V3.35648C12.625 3.26194 12.5874 3.17126 12.5206 3.10441C12.4537 3.03756 12.3631 3 12.2685 3C10.4354 3 8.64341 3.54359 7.11921 4.56203C5.59501 5.58046 4.40704 7.02801 3.70553 8.72161C3.00402 10.4152 2.82047 12.2788 3.1781 14.0767C3.53572 15.8746 4.41846 17.5261 5.71469 18.8223C7.01091 20.1186 8.6624 21.0013 10.4603 21.3589C12.2582 21.7166 14.1218 21.533 15.8154 20.8315C17.509 20.13 18.9566 18.942 19.975 17.4178C20.9934 15.8936 21.537 14.1017 21.537 12.2685C21.537 12.174 21.4995 12.0833 21.4326 12.0164C21.3658 11.9496 21.2751 11.912 21.1805 11.912ZM11.912 9.53074C11.7505 9.58937 11.5772 9.60821 11.4069 9.58566C11.2365 9.56311 11.0741 9.49985 10.9334 9.40122C10.7926 9.30259 10.6778 9.17151 10.5984 9.01906C10.5191 8.86662 10.4777 8.6973 10.4777 8.52546C10.4777 8.35362 10.5191 8.1843 10.5984 8.03186C10.6778 7.87941 10.7926 7.74833 10.9334 7.6497C11.0741 7.55107 11.2365 7.4878 11.4069 7.46526C11.5772 7.44271 11.7505 7.46155 11.912 7.52018V9.53074ZM6.56482 14.4074C6.81316 14.4078 7.05361 14.4947 7.24492 14.6531C7.43622 14.8114 7.56644 15.0314 7.61324 15.2753C7.66003 15.5192 7.62049 15.7718 7.50139 15.9897C7.38229 16.2076 7.19106 16.3773 6.96051 16.4696C6.51954 15.9134 6.16831 15.2915 5.91959 14.6266C6.1045 14.4842 6.33141 14.4071 6.56482 14.4074ZM12.2685 20.8241C9.99944 20.8713 7.80453 20.0153 6.16662 18.4442C4.52872 16.8732 3.582 14.7158 3.53473 12.4468C3.48745 10.1777 4.3435 7.98276 5.91455 6.34486C7.4856 4.70696 9.64296 3.76023 11.912 3.71296V4.78241C10.4643 4.85316 9.06818 5.34269 7.89326 6.19158C6.71835 7.04046 5.81514 8.21218 5.2933 9.56448C4.77146 10.9168 4.65344 12.3915 4.95355 13.8096C5.25367 15.2277 5.95902 16.5281 6.98396 17.5531C8.00891 18.578 9.30937 19.2834 10.7275 19.5835C12.1455 19.8836 13.6203 19.7656 14.9726 19.2437C16.3249 18.7219 17.4966 17.8187 18.3455 16.6438C19.1943 15.4689 19.6839 14.0728 19.7546 12.625H20.8241C20.7294 14.8308 19.7868 16.9149 18.1927 18.4425C16.5987 19.9702 14.4764 20.8233 12.2685 20.8241Z" fill="currentColor"/>
<path d="M12.9815 17.195C13.7336 17.195 14.3433 16.5854 14.3433 15.8333C14.3433 15.0812 13.7336 14.4715 12.9815 14.4715C12.2294 14.4715 11.6198 15.0812 11.6198 15.8333C11.6198 16.5854 12.2294 17.195 12.9815 17.195Z" fill="currentColor"/>
<path d="M16.6354 14.2292C16.7831 14.2292 16.9028 14.1095 16.9028 13.9618C16.9028 13.8142 16.7831 13.6945 16.6354 13.6945C16.4877 13.6945 16.368 13.8142 16.368 13.9618C16.368 14.1095 16.4877 14.2292 16.6354 14.2292Z" fill="currentColor"/>
<path d="M10.397 14.5892C10.6451 14.5892 10.8462 14.3881 10.8462 14.1401C10.8462 13.892 10.6451 13.6909 10.397 13.6909C10.1489 13.6909 9.94784 13.892 9.94784 14.1401C9.94784 14.3881 10.1489 14.5892 10.397 14.5892Z" fill="currentColor"/>
<path d="M7.72336 11.5912C8.08759 11.5912 8.38285 11.296 8.38285 10.9317C8.38285 10.5675 8.08759 10.2722 7.72336 10.2722C7.35913 10.2722 7.06387 10.5675 7.06387 10.9317C7.06387 11.296 7.35913 11.5912 7.72336 11.5912Z" fill="currentColor"/>
<path d="M17.1701 7.70201C17.3552 7.70201 17.5052 7.55198 17.5052 7.36692C17.5052 7.18185 17.3552 7.03182 17.1701 7.03182C16.9851 7.03182 16.8351 7.18185 16.8351 7.36692C16.8351 7.55198 16.9851 7.70201 17.1701 7.70201Z" fill="currentColor"/>
<path d="M14.051 11.0208H21.1806C21.2752 11.0208 21.3658 10.9833 21.4327 10.9164C21.4995 10.8496 21.5371 10.7589 21.5371 10.6644C21.5371 8.67891 20.7484 6.77479 19.3445 5.37088C17.9406 3.96696 16.0364 3.17825 14.051 3.17825C13.9564 3.17825 13.8658 3.2158 13.7989 3.28266C13.7321 3.34951 13.6945 3.44018 13.6945 3.53473V10.6644C13.6945 10.7589 13.7321 10.8496 13.7989 10.9164C13.8658 10.9833 13.9564 11.0208 14.051 11.0208ZM15.812 10.3079C15.8234 10.026 15.9434 9.75939 16.1469 9.56395C16.3504 9.36852 16.6216 9.25938 16.9037 9.25938C17.1859 9.25938 17.4571 9.36852 17.6606 9.56395C17.8641 9.75939 17.9841 10.026 17.9955 10.3079H15.812ZM18.7084 10.3079C18.6937 9.83906 18.4971 9.39437 18.1603 9.06796C17.8234 8.74154 17.3728 8.55902 16.9037 8.55902C16.4347 8.55902 15.984 8.74154 15.6472 9.06796C15.3104 9.39437 15.1138 9.83906 15.099 10.3079H14.4075V5.32961C15.6993 5.41606 16.916 5.96831 17.8315 6.88384C18.747 7.79938 19.2993 9.016 19.3857 10.3079H18.7084ZM20.8152 10.3079H20.1023C20.0149 8.82621 19.3868 7.42813 18.3371 6.37878C17.2874 5.32943 15.8892 4.70178 14.4075 4.61487V3.9019C16.0773 3.99215 17.655 4.69598 18.8376 5.87829C20.0202 7.0606 20.7245 8.63806 20.8152 10.3079Z" fill="currentColor"/>
<path d="M17.2593 12.2685C17.2593 12.0717 17.0997 11.9121 16.9028 11.9121C16.7059 11.9121 16.5463 12.0717 16.5463 12.2685C16.5463 12.4654 16.7059 12.625 16.9028 12.625C17.0997 12.625 17.2593 12.4654 17.2593 12.2685Z" fill="currentColor"/>
</svg>
