<svg width="25" height="25" viewBox="0 0 25 25" fill="currentColor" xmlns="http://www.w3.org/2000/svg">
<path d="M12.4999 10.1597C12.9429 10.1597 13.3046 10.5205 13.3046 10.9634C13.3046 11.3676 13.6331 11.6952 14.0373 11.6952C14.4405 11.6952 14.769 11.3676 14.769 10.9634C14.769 9.97052 14.1222 9.13264 13.2317 8.82627V8.41102C13.2317 8.00777 12.9041 7.67833 12.4999 7.67833C12.0948 7.67833 11.7672 8.00777 11.7672 8.41102V8.82627C10.8768 9.13264 10.2317 9.97052 10.2317 10.9634C10.2317 12.2157 11.2486 13.2326 12.4999 13.2326C12.9429 13.2326 13.3046 13.5943 13.3046 14.0372C13.3046 14.4811 12.9429 14.8419 12.4999 14.8419C12.057 14.8419 11.6962 14.4811 11.6962 14.0372C11.6962 13.633 11.3677 13.3045 10.9635 13.3045C10.5584 13.3045 10.2317 13.633 10.2317 14.0372C10.2317 15.0301 10.8768 15.8671 11.7672 16.1735V16.5887C11.7672 16.9938 12.0948 17.3223 12.4999 17.3223C12.9041 17.3223 13.2317 16.9938 13.2317 16.5887V16.1735C14.1222 15.8671 14.769 15.0301 14.769 14.0372C14.769 12.7859 13.7512 11.7681 12.4999 11.7681C12.057 11.7681 11.6962 11.4073 11.6962 10.9634C11.6962 10.5205 12.057 10.1597 12.4999 10.1597ZM18.6355 16.5666C18.9945 16.7557 19.4365 16.6182 19.6247 16.262C20.2338 15.1113 20.5549 13.8102 20.5549 12.4999C20.5549 8.05944 16.9404 4.44583 12.4999 4.44583C8.05858 4.44583 4.44497 8.05944 4.44497 12.4999C4.44497 16.9412 8.05858 20.5548 12.4999 20.5548C13.7909 20.5548 15.0736 20.2429 16.2095 19.6514C16.5685 19.4659 16.7078 19.0221 16.5214 18.664C16.335 18.3069 15.893 18.1648 15.5331 18.3521C14.5928 18.8431 13.5713 19.0913 12.4999 19.0913C8.86602 19.0913 5.9085 16.1347 5.9085 12.4999C5.9085 8.86688 8.86602 5.90936 12.4999 5.90936C16.1338 5.90936 19.0914 8.86688 19.0914 12.4999C19.0914 13.5731 18.8274 14.637 18.331 15.5764C18.1409 15.9345 18.2775 16.3774 18.6355 16.5666V16.5666ZM12.4999 1.51508C10.3785 1.51508 8.31881 2.12227 6.5443 3.26928C6.20379 3.48891 6.1069 3.94199 6.32652 4.28158C6.54706 4.62116 6.99831 4.71713 7.33973 4.49935C8.87524 3.50644 10.6617 2.98045 12.4999 2.98045C17.7496 2.98045 22.0193 7.25109 22.0193 12.4999C22.0193 17.7496 17.7496 22.0202 12.4999 22.0202C7.25023 22.0202 2.97959 17.7496 2.97959 12.4999C2.97959 10.6792 3.49543 8.9084 4.47265 7.3812C4.69043 7.03977 4.59077 6.58668 4.24934 6.36891C3.90883 6.15113 3.45575 6.25079 3.23889 6.5913C2.11125 8.35473 1.51514 10.3996 1.51514 12.4999C1.51514 18.5579 6.44187 23.4847 12.4999 23.4847C18.5571 23.4847 23.4847 18.5579 23.4847 12.4999C23.4847 6.44365 18.5571 1.51508 12.4999 1.51508V1.51508Z" fill="currentColor"/>
</svg>
